<?xml version="1.0" encoding="utf-8"?>
<!-- Generator: Adobe Illustrator 26.0.2, SVG Export Plug-In . SVG Version: 6.00 Build 0)  -->
<svg version="1.1" xmlns="http://www.w3.org/2000/svg" xmlns:xlink="http://www.w3.org/1999/xlink" x="0px" y="0px"
	 viewBox="0 0 53.32 33.03" style="enable-background:new 0 0 53.32 33.03;" xml:space="preserve">
<style type="text/css">
	.st0{opacity:0.54;fill:#F4AFAB;}
	.st1{fill:#FFFFFF;}
	.st2{fill:#AF8D86;}
	.st3{font-family:'PassionOne-Regular';}
	.st4{font-size:7.8668px;}
	.st5{font-size:3px;}
</style>
<g id="Layer_2">
	<g>
		<g>
			<path class="st0" d="M11.43,0.48C5.8,1.96,4.91,7.8,5.17,10.54c-2.61,1.59-7.11,6.15-4.27,11.63c3.55,6.85,8.67,5.35,11.23,4.99
				c5.76,9.7,12.44,4.85,15,3.07c9.27,6.45,14.15-0.64,15.43-4.99c3.32,0.26,10.1-0.77,10.66-6.99c0.71-7.78-3.2-8.99-6.4-10.42
				C42.57-2.52,35.03,1.4,32.12,3.12C26.6-1.68,21.86,0.83,20.17,2.69C19.61,1.33,17.06-1.01,11.43,0.48z"/>
			<path class="st1" d="M13.54,2.7c-4.85,1.28-5.61,6.31-5.39,8.67c-2.25,1.37-6.12,5.3-3.67,10.02c3.06,5.9,7.47,4.61,9.68,4.3
				c4.96,8.36,10.72,4.18,12.92,2.64c7.99,5.56,12.19-0.55,13.29-4.3c2.86,0.23,8.7-0.66,9.19-6.02c0.61-6.7-2.76-7.75-5.51-8.97
				C40.37,0.11,33.87,3.5,31.36,4.97C26.61,0.84,22.52,3,21.07,4.6C20.58,3.43,18.39,1.42,13.54,2.7z"/>
		</g>
		<text transform="matrix(1 0 0 1 12.3103 17.0189)" class="st2 st3 st4">WELCOME!</text>
		<text transform="matrix(1 0 0 1 11.6898 19.9661)" class="st2 st3 st5">scroll down to find out more</text>
	</g>
</g>
<g id="Layer_3">
</g>
</svg>
